<svg viewBox="0 0 136 32" fill="none" xmlns="http://www.w3.org/2000/svg"><path d="M98.132 32c-8.859 0-14.1-5.99-13.857-13.775C84.586 8.257 93.364 0 103.833 0c4.492 0 8.083 1.162 10.471 2.383l-1.395 7.371c-2.995-1.628-5.568-2.61-9.722-2.61-6.527 0-10.834 4.878-10.997 10.14-.132 4.19 2.39 7.657 7.263 7.657 1.103 0 2.379-.17 3.234-.384l1.908-10.081 7.424.001-2.879 15.212C106 31.145 101.862 32 98.132 32zM136 14.895l-15.178-9-4.012 21.052L136 14.895z" fill="#1899D6"/><path d="M24.035 20.822c1.665 0 3.45-1.475 3.45-3.826 0-1.525-.965-2.45-2.268-2.45-1.64 0-3.474 1.55-3.474 3.9 0 1.5.965 2.376 2.292 2.376zm1.231-9.875c3.739 0 6.44 2.275 6.44 5.774 0 4.55-3.884 7.7-7.742 7.7-3.74 0-6.442-2.25-6.442-5.775 0-4.524 3.86-7.699 7.744-7.699zm16.461 4.298c.558 0 1.092-.099 1.497-.371.837-.544 1.37-1.558 1.37-2.72 0-1.04-.61-1.707-1.827-1.707h-2.232l-.963 4.798h2.155zm-4.895-8.508h6.924c1.066 0 1.979.172 2.765.544 1.7.791 2.638 2.423 2.638 4.476 0 2.97-1.724 5.492-4.16 6.604a6.705 6.705 0 01-2.79.595h-3.374l-1.09 5.465h-4.439l3.526-17.684zm17.663 14.385c1.098 0 2.293-1.225 2.489-2.275l.049-.276h-.391c-.903 0-3.17.2-3.17 1.726 0 .474.315.825 1.023.825zm2.806-5.025h.17c.025-.175.049-.4.049-.475 0-.85-.585-1.175-1.586-1.175-1.586 0-3.635 1.175-3.635 1.175l-.903-3.25s2.587-1.425 5.368-1.425c2.122 0 4.977.85 4.977 4.1 0 .375-.049.8-.122 1.25l-1.463 7.824H56.3l.146-.775c.075-.424.22-.8.22-.8h-.049s-1.366 1.875-3.708 1.875c-1.878 0-3.684-1.15-3.684-3.325 0-3.9 4.855-4.999 8.075-4.999zm6.842 10.54c.771 0 1.696-.205 2.39-1.33l.385-.613L63.81 11.79h4.624l1.079 6.516c.128.716.128 1.943.128 1.943h.052s.463-1.152.796-1.866l2.955-6.593h4.984l-8.272 14.564c-1.645 2.889-3.931 3.962-5.781 3.962-1.953 0-3.468-1.022-3.468-1.022l1.926-3.067s.54.41 1.31.41zM8.095 25.263c-5.173 0-8.232-3.625-8.09-8.338.18-6.033 5.306-11.03 11.42-11.03 2.622 0 4.702.69 6.096 1.43l-.809 4.476c-1.748-.987-3.24-1.582-5.665-1.582-3.812 0-6.326 2.952-6.421 6.136-.077 2.538 1.395 4.636 4.241 4.636.644 0 1.39-.104 1.888-.233l1.114-6.101h4.326l-1.672 9.207c-1.834.882-4.25 1.4-6.428 1.4z" fill="#2F4049"/></svg>
